<?xml version="1.0" encoding="utf-8"?>
<!-- Generator: Adobe Illustrator 22.1.0, SVG Export Plug-In . SVG Version: 6.00 Build 0)  -->
<svg version="1.1" id="Layer_1" xmlns="http://www.w3.org/2000/svg" xmlns:xlink="http://www.w3.org/1999/xlink" x="0px" y="0px"
	 viewBox="0 0 180 252" style="enable-background:new 0 0 180 252;" xml:space="preserve">
<style type="text/css">
	.st0{font-family:'MyriadPro-Regular';}
	.st1{font-size:25px;}
</style>
<text transform="matrix(1 0 0 1 14 27.5)" class="st0 st1">A</text>
<text transform="matrix(-1 0 0 -1 166 225.0742)" class="st0 st1">A</text>
<g>
	<circle cx="90" cy="112.9" r="10.9"/>
	<circle cx="81.4" cy="130.9" r="10.9"/>
	<circle cx="98.6" cy="130.9" r="10.9"/>
	<path d="M90.4,136.1c-3.1,6-7.9,10.9-13.9,13.9h13.9h13.9C98.3,146.9,93.4,142,90.4,136.1z"/>
</g>
<g>
	<circle cx="22" cy="37.7" r="5.7"/>
	<circle cx="17.5" cy="47" r="5.7"/>
	<circle cx="26.5" cy="47" r="5.7"/>
	<path d="M22.2,49.7c-1.6,3.1-4.1,5.7-7.2,7.3h7.2h7.2C26.3,55.4,23.8,52.9,22.2,49.7z"/>
</g>
<g>
	<circle cx="158" cy="215.3" r="5.7"/>
	<circle cx="162.5" cy="206" r="5.7"/>
	<circle cx="153.5" cy="206" r="5.7"/>
	<path d="M157.8,203.3c1.6-3.1,4.1-5.7,7.2-7.3h-7.2h-7.2C153.7,197.6,156.2,200.1,157.8,203.3z"/>
</g>
</svg>
