<?xml version="1.0" encoding="utf-8"?>
<!-- Generator: Adobe Illustrator 22.1.0, SVG Export Plug-In . SVG Version: 6.00 Build 0)  -->
<svg version="1.1" id="Layer_1" xmlns="http://www.w3.org/2000/svg" xmlns:xlink="http://www.w3.org/1999/xlink" x="0px" y="0px"
	 viewBox="0 0 180 252" style="enable-background:new 0 0 180 252;" xml:space="preserve">
<style type="text/css">
	.st0{fill:#F41414;}
</style>
<g>
	<path class="st0" d="M13.1,25.5l2.5-0.4h0.5l2.7,0.4v1h-5.7V25.5z M20.6,9.6h1.5l5.7,16.9h-2.3l-5-15H21l-5.1,15h-1.2L20.6,9.6z
		 M17.6,19.9h6.7l0.4,1.1h-7.5L17.6,19.9z M22.6,25.5l3.1-0.4h0.5l3.1,0.4v1h-6.7V25.5z"/>
</g>
<path class="st0 myClass" d="M90,149L90,149c6.7-8.6,14.4-16.3,23-23l0,0l-3.2-2.5c-6.4-5-12.2-10.8-17.3-17.3L90,103l0,0
	c-6.7,8.6-14.4,16.3-23,23l0,0l0,0C75.6,132.7,83.3,140.4,90,149L90,149z"/>
<path class="st0" d="M22,56L22,56c3.5-4.5,7.5-8.5,12-12l0,0l-1.7-1.3c-3.4-2.6-6.4-5.6-9-9L22,32l0,0c-3.5,4.5-7.5,8.5-12,12l0,0
	l0,0C14.5,47.5,18.5,51.5,22,56L22,56z"/>
<path class="st0" d="M158,220L158,220c3.5-4.5,7.5-8.5,12-12l0,0l-1.7-1.3c-3.4-2.6-6.4-5.6-9-9L158,196l0,0c-3.5,4.5-7.5,8.5-12,12
	l0,0l0,0C150.5,211.5,154.5,215.5,158,220L158,220z"/>
<g>
	<path class="st0" d="M166.3,226.6l-2.5,0.4h-0.5l-2.7-0.4v-1h5.7V226.6z M158.9,242.5h-1.5l-5.7-16.9h2.3l5,15h-0.6l5.1-15h1.2
		L158.9,242.5z M161.8,232.3H155l-0.4-1.1h7.5L161.8,232.3z M156.9,226.6l-3.1,0.4h-0.5l-3.1-0.4v-1h6.7V226.6z"/>
</g>
</svg>
