<?xml version="1.0" encoding="utf-8"?>
<!-- Generator: Adobe Illustrator 22.1.0, SVG Export Plug-In . SVG Version: 6.00 Build 0)  -->
<svg version="1.1" id="Layer_1" xmlns="http://www.w3.org/2000/svg" xmlns:xlink="http://www.w3.org/1999/xlink" x="0px" y="0px"
	 viewBox="0 0 180 252" style="enable-background:new 0 0 180 252;" xml:space="preserve">
<style type="text/css">
	.st0{fill:none;stroke:#F41414;stroke-miterlimit:10;}
	.st1{fill:#FFFFFF;}
	.st2{fill:#FFFFFF;stroke:#F41414;stroke-miterlimit:10;}
</style>
<g>
	
		<rect x="-61.1" y="-25.1" transform="matrix(0.7071 -0.7071 0.7071 0.7071 -62.7351 100.5442)" class="st0" width="302.2" height="302.2"/>
	<line class="st0" x1="85.8" y1="335.5" x2="299.5" y2="121.8"/>
	<line class="st0" x1="81.6" y1="331.3" x2="295.3" y2="117.6"/>
	<line class="st0" x1="77.4" y1="327.1" x2="291.1" y2="113.4"/>
	<line class="st0" x1="73.2" y1="322.9" x2="286.9" y2="109.2"/>
	<line class="st0" x1="69" y1="318.7" x2="282.7" y2="105"/>
	<line class="st0" x1="64.8" y1="314.5" x2="278.5" y2="100.8"/>
	<line class="st0" x1="60.7" y1="310.4" x2="274.4" y2="96.7"/>
	<line class="st0" x1="56.5" y1="306.2" x2="270.2" y2="92.5"/>
	<line class="st0" x1="52.3" y1="302" x2="266" y2="88.3"/>
	<line class="st0" x1="48.1" y1="297.8" x2="261.8" y2="84.1"/>
	<line class="st0" x1="43.9" y1="293.6" x2="257.6" y2="79.9"/>
	<line class="st0" x1="39.7" y1="289.4" x2="253.4" y2="75.7"/>
	<line class="st0" x1="35.5" y1="285.2" x2="249.2" y2="71.5"/>
	<line class="st0" x1="31.3" y1="281" x2="245" y2="67.3"/>
	<line class="st0" x1="27.1" y1="276.8" x2="240.8" y2="63.1"/>
	<line class="st0" x1="22.9" y1="272.7" x2="236.7" y2="58.9"/>
	<line class="st0" x1="18.8" y1="268.5" x2="232.5" y2="54.8"/>
	<line class="st0" x1="14.6" y1="264.3" x2="228.3" y2="50.6"/>
	<line class="st0" x1="10.4" y1="260.1" x2="224.1" y2="46.4"/>
	<line class="st0" x1="6.2" y1="255.9" x2="219.9" y2="42.2"/>
	<line class="st0" x1="2" y1="251.7" x2="215.7" y2="38"/>
	<line class="st0" x1="-2.2" y1="247.5" x2="211.5" y2="33.8"/>
	<line class="st0" x1="-6.4" y1="243.3" x2="207.3" y2="29.6"/>
	<line class="st0" x1="-10.6" y1="239.1" x2="203.1" y2="25.4"/>
	<line class="st0" x1="-14.8" y1="234.9" x2="198.9" y2="21.2"/>
	<line class="st0" x1="-18.9" y1="230.8" x2="194.8" y2="17.1"/>
	<line class="st0" x1="-23.1" y1="226.6" x2="190.6" y2="12.9"/>
	<line class="st0" x1="-27.3" y1="222.4" x2="186.4" y2="8.7"/>
	<line class="st0" x1="-31.5" y1="218.2" x2="182.2" y2="4.5"/>
	<line class="st0" x1="-35.7" y1="214" x2="178" y2="0.3"/>
	<line class="st0" x1="-39.9" y1="209.8" x2="173.8" y2="-3.9"/>
	<line class="st0" x1="-44.1" y1="205.6" x2="169.6" y2="-8.1"/>
	<line class="st0" x1="-48.3" y1="201.4" x2="165.4" y2="-12.3"/>
	<line class="st0" x1="-52.5" y1="197.2" x2="161.2" y2="-16.5"/>
	<line class="st0" x1="-56.7" y1="193.1" x2="157.1" y2="-20.7"/>
	<line class="st0" x1="-60.8" y1="188.9" x2="152.9" y2="-24.8"/>
	<line class="st0" x1="-65" y1="184.7" x2="148.7" y2="-29"/>
	<line class="st0" x1="-69.2" y1="180.5" x2="144.5" y2="-33.2"/>
	<line class="st0" x1="-73.4" y1="176.3" x2="140.3" y2="-37.4"/>
	<line class="st0" x1="-77.6" y1="172.1" x2="136.1" y2="-41.6"/>
	<line class="st0" x1="-81.8" y1="167.9" x2="131.9" y2="-45.8"/>
	<line class="st0" x1="-86" y1="163.7" x2="127.7" y2="-50"/>
	<line class="st0" x1="-90.2" y1="159.5" x2="123.5" y2="-54.2"/>
	<line class="st0" x1="-94.4" y1="155.3" x2="119.3" y2="-58.4"/>
	<line class="st0" x1="-98.5" y1="151.2" x2="115.2" y2="-62.5"/>
	<line class="st0" x1="-102.7" y1="147" x2="111" y2="-66.7"/>
	<line class="st0" x1="-106.9" y1="142.8" x2="106.8" y2="-70.9"/>
	<line class="st0" x1="-111.1" y1="138.6" x2="102.6" y2="-75.1"/>
	<line class="st0" x1="-115.3" y1="134.4" x2="98.4" y2="-79.3"/>
	<line class="st0" x1="-119.5" y1="130.2" x2="94.2" y2="-83.5"/>
</g>
<g>
	
		<rect x="-61.1" y="-25.1" transform="matrix(0.7071 -0.7071 0.7071 0.7071 -62.7351 100.5442)" class="st0" width="302.2" height="302.2"/>
	<line class="st0" x1="-119.5" y1="121.8" x2="94.2" y2="335.5"/>
	<line class="st0" x1="-115.3" y1="117.6" x2="98.4" y2="331.3"/>
	<line class="st0" x1="-111.1" y1="113.4" x2="102.6" y2="327.1"/>
	<line class="st0" x1="-106.9" y1="109.2" x2="106.8" y2="322.9"/>
	<line class="st0" x1="-102.7" y1="105" x2="111" y2="318.7"/>
	<line class="st0" x1="-98.5" y1="100.8" x2="115.2" y2="314.5"/>
	<line class="st0" x1="-94.4" y1="96.7" x2="119.3" y2="310.4"/>
	<line class="st0" x1="-90.2" y1="92.5" x2="123.5" y2="306.2"/>
	<line class="st0" x1="-86" y1="88.3" x2="127.7" y2="302"/>
	<line class="st0" x1="-81.8" y1="84.1" x2="131.9" y2="297.8"/>
	<line class="st0" x1="-77.6" y1="79.9" x2="136.1" y2="293.6"/>
	<line class="st0" x1="-73.4" y1="75.7" x2="140.3" y2="289.4"/>
	<line class="st0" x1="-69.2" y1="71.5" x2="144.5" y2="285.2"/>
	<line class="st0" x1="-65" y1="67.3" x2="148.7" y2="281"/>
	<line class="st0" x1="-60.8" y1="63.1" x2="152.9" y2="276.8"/>
	<line class="st0" x1="-56.7" y1="58.9" x2="157.1" y2="272.7"/>
	<line class="st0" x1="-52.5" y1="54.8" x2="161.2" y2="268.5"/>
	<line class="st0" x1="-48.3" y1="50.6" x2="165.4" y2="264.3"/>
	<line class="st0" x1="-44.1" y1="46.4" x2="169.6" y2="260.1"/>
	<line class="st0" x1="-39.9" y1="42.2" x2="173.8" y2="255.9"/>
	<line class="st0" x1="-35.7" y1="38" x2="178" y2="251.7"/>
	<line class="st0" x1="-31.5" y1="33.8" x2="182.2" y2="247.5"/>
	<line class="st0" x1="-27.3" y1="29.6" x2="186.4" y2="243.3"/>
	<line class="st0" x1="-23.1" y1="25.4" x2="190.6" y2="239.1"/>
	<line class="st0" x1="-18.9" y1="21.2" x2="194.8" y2="234.9"/>
	<line class="st0" x1="-14.8" y1="17.1" x2="198.9" y2="230.8"/>
	<line class="st0" x1="-10.6" y1="12.9" x2="203.1" y2="226.6"/>
	<line class="st0" x1="-6.4" y1="8.7" x2="207.3" y2="222.4"/>
	<line class="st0" x1="-2.2" y1="4.5" x2="211.5" y2="218.2"/>
	<line class="st0" x1="2" y1="0.3" x2="215.7" y2="214"/>
	<line class="st0" x1="6.2" y1="-3.9" x2="219.9" y2="209.8"/>
	<line class="st0" x1="10.4" y1="-8.1" x2="224.1" y2="205.6"/>
	<line class="st0" x1="14.6" y1="-12.3" x2="228.3" y2="201.4"/>
	<line class="st0" x1="18.8" y1="-16.5" x2="232.5" y2="197.2"/>
	<line class="st0" x1="22.9" y1="-20.7" x2="236.7" y2="193.1"/>
	<line class="st0" x1="27.1" y1="-24.8" x2="240.8" y2="188.9"/>
	<line class="st0" x1="31.3" y1="-29" x2="245" y2="184.7"/>
	<line class="st0" x1="35.5" y1="-33.2" x2="249.2" y2="180.5"/>
	<line class="st0" x1="39.7" y1="-37.4" x2="253.4" y2="176.3"/>
	<line class="st0" x1="43.9" y1="-41.6" x2="257.6" y2="172.1"/>
	<line class="st0" x1="48.1" y1="-45.8" x2="261.8" y2="167.9"/>
	<line class="st0" x1="52.3" y1="-50" x2="266" y2="163.7"/>
	<line class="st0" x1="56.5" y1="-54.2" x2="270.2" y2="159.5"/>
	<line class="st0" x1="60.7" y1="-58.4" x2="274.4" y2="155.3"/>
	<line class="st0" x1="64.8" y1="-62.5" x2="278.5" y2="151.2"/>
	<line class="st0" x1="69" y1="-66.7" x2="282.7" y2="147"/>
	<line class="st0" x1="73.2" y1="-70.9" x2="286.9" y2="142.8"/>
	<line class="st0" x1="77.4" y1="-75.1" x2="291.1" y2="138.6"/>
	<line class="st0" x1="81.6" y1="-79.3" x2="295.3" y2="134.4"/>
	<line class="st0" x1="85.8" y1="-83.5" x2="299.5" y2="130.2"/>
</g>
<g>
	<path class="st1" d="M160,20v212H20V20H160 M180,0H0v252h180V0L180,0z"/>
</g>
<rect x="19.4" y="20" class="st0" width="140.4" height="212"/>
<rect x="75.2" y="111.2" transform="matrix(0.7071 0.7071 -0.7071 0.7071 115.4558 -26.7351)" class="st2" width="29.7" height="29.7"/>
<rect x="79.6" y="115.6" transform="matrix(0.7071 0.7071 -0.7071 0.7071 115.4558 -26.7351)" class="st2" width="20.7" height="20.7"/>
<rect x="84" y="120" transform="matrix(0.7071 0.7071 -0.7071 0.7071 115.4558 -26.7351)" class="st2" width="11.9" height="11.9"/>
</svg>
